<?xml version="1.0" encoding="UTF-8" standalone="no"?>
<!-- Created with Inkscape (http://www.inkscape.org/) -->

<svg
   width="230mm"
   height="47mm"
   viewBox="0 0 230 47"
   version="1.1"
   id="svg1"
   inkscape:version="1.4 (86a8ad7, 2024-10-11)"
   sodipodi:docname="MatthewCordaro-CrscadiaMono.svg"
   xmlns:inkscape="http://www.inkscape.org/namespaces/inkscape"
   xmlns:sodipodi="http://sodipodi.sourceforge.net/DTD/sodipodi-0.dtd"
   xmlns="http://www.w3.org/2000/svg"
   xmlns:svg="http://www.w3.org/2000/svg">
  <sodipodi:namedview
     id="namedview1"
     pagecolor="#ffffff"
     bordercolor="#000000"
     borderopacity="0.25"
     inkscape:showpageshadow="2"
     inkscape:pageopacity="0.0"
     inkscape:pagecheckerboard="0"
     inkscape:deskcolor="#d1d1d1"
     inkscape:document-units="mm"
     inkscape:zoom="1.4702524"
     inkscape:cx="435.97957"
     inkscape:cy="197.58513"
     inkscape:window-width="2560"
     inkscape:window-height="1369"
     inkscape:window-x="-8"
     inkscape:window-y="26"
     inkscape:window-maximized="1"
     inkscape:current-layer="layer1" />
  <defs
     id="defs1" />
  <g
     inkscape:label="Matthew Cordaro"
     inkscape:groupmode="layer"
     id="layer1">
    <g
       id="g35"
       style="fill:#0c2ddf;fill-opacity:1"
       inkscape:label="Cordaro"
       transform="matrix(0.9812139,0,0,0.9812139,2.1642113,2.933463)">
      <path
         id="path33"
         style="font-size:7.05556px;font-family:'Cascadia Mono';-inkscape-font-specification:'Cascadia Mono';fill:#0c2ddf;fill-opacity:1;stroke-width:0.912562"
         d="m 215.06181,17.583423 c -1.74274,0 -3.09742,0.5703 -4.06384,1.711007 -0.96643,1.132773 -1.44952,2.741144 -1.44952,4.824511 0,2.075471 0.48309,3.683289 1.44952,4.823995 0.96642,1.140706 2.3211,1.711007 4.06384,1.711007 1.75067,0 3.10535,-0.570301 4.06383,-1.711007 0.96646,-1.140706 1.44953,-2.748524 1.44953,-4.823995 0,-2.083367 -0.48307,-3.691738 -1.44953,-4.824511 -0.95848,-1.140707 -2.31316,-1.711007 -4.06383,-1.711007 z m 0,2.257743 c 0.92683,0 1.63985,0.372111 2.13889,1.116728 0.50694,0.736683 0.76067,1.790634 0.76067,3.161047 0,1.362516 -0.25369,2.415915 -0.76067,3.160531 -0.49904,0.744616 -1.21206,1.116728 -2.13889,1.116728 -0.92683,0 -1.6438,-0.372112 -2.15077,-1.116728 -0.49887,-0.744616 -0.74828,-1.798015 -0.74828,-3.160531 0,-1.370413 0.24923,-2.424364 0.74828,-3.161047 0.50697,-0.744617 1.22394,-1.116728 2.15077,-1.116728 z" />
      <path
         style="font-size:7.05556px;font-family:'Cascadia Mono';-inkscape-font-specification:'Cascadia Mono';fill:#0c2ddf;fill-opacity:1;stroke-width:0.912562"
         d="m 195.09955,20.031221 v -2.21012 h 4.20633 l 0.23765,2.21012 z"
         id="path32" />
      <path
         style="font-size:7.05556px;font-family:'Cascadia Mono';-inkscape-font-specification:'Cascadia Mono';fill:#0c2ddf;fill-opacity:1;stroke-width:0.912562"
         d="M 197.42849,30.416362 V 17.821101 h 2.04374 l 0.47531,3.612231 v 8.98303 z"
         id="path31" />
      <path
         style="font-size:7.05556px;font-family:'Cascadia Mono';-inkscape-font-specification:'Cascadia Mono';fill:#0c2ddf;fill-opacity:1;stroke-width:0.912562"
         d="m 194.62424,30.416362 v -2.210085 h 8.41269 v 2.210085 z"
         id="path30" />
      <path
         style="font-size:7.05556px;font-family:'Cascadia Mono';-inkscape-font-specification:'Cascadia Mono';fill:#0c2ddf;fill-opacity:1;stroke-width:0.912562"
         d="m 199.94754,24.998034 -0.73671,-3.944926 h 0.97436 c 0.14244,-2.31311 1.29912,-3.469647 3.46964,-3.469647 1.29913,0 2.24178,0.372326 2.82798,1.116941 0.5862,0.744618 0.87931,1.948718 0.87931,3.612232 h -2.49529 c 0,-0.918897 -0.13865,-1.580357 -0.41589,-1.984345 -0.26937,-0.403988 -0.70898,-0.606 -1.31895,-0.606 -1.06942,0 -1.8695,0.45945 -2.40024,1.378347 -0.52281,0.910964 -0.78421,2.210085 -0.78421,3.897398 z"
         id="path29" />
      <path
         style="font-size:7.05556px;font-family:'Cascadia Mono';-inkscape-font-specification:'Cascadia Mono';fill:#0c2ddf;fill-opacity:1;stroke-width:0.912562"
         d="m 184.69065,30.654037 c -1.31499,0 -2.33291,-0.316969 -3.05379,-0.950594 -0.72086,-0.63373 -1.08128,-1.528863 -1.08128,-2.685401 0,-1.330818 0.49511,-2.352704 1.48529,-3.065658 0.99813,-0.712954 2.4042,-1.069414 4.21824,-1.069414 0.75254,0 1.4219,0.0476 2.00811,0.142445 0.5941,0.08726 1.1209,0.221775 1.58036,0.404023 l -0.52285,1.711041 c -0.53074,-0.118992 -1.04959,-0.186248 -1.55656,-0.202114 -0.50697,-0.02414 -1.02585,-0.03553 -1.55659,-0.03553 -2.18635,0 -3.27953,0.665428 -3.27953,1.996245 0,0.554505 0.18624,0.982257 0.55846,1.283291 0.38022,0.301103 0.91493,0.451516 1.60412,0.451516 0.78422,0 1.43775,-0.134514 1.96059,-0.403988 0.53074,-0.269372 0.92683,-0.613898 1.18823,-1.033751 0.26144,-0.419853 0.39212,-0.851572 0.39212,-1.29519 v -1.378345 l 0.73669,3.231972 h -0.99809 l 0.40398,-0.380224 c 0,0.728785 -0.17038,1.338751 -0.51093,1.829896 -0.33283,0.483213 -0.80405,0.847605 -1.41401,1.093179 -0.60997,0.237639 -1.33082,0.356459 -2.16256,0.356459 z"
         id="path28" />
      <path
         style="font-size:7.05556px;font-family:'Cascadia Mono';-inkscape-font-specification:'Cascadia Mono';fill:#0c2ddf;fill-opacity:1;stroke-width:0.912562"
         d="m 189.13462,30.535043 -0.16625,-3.73105 -0.33283,-1.04565 v -3.255769 c 0,-0.839673 -0.29696,-1.453605 -0.89117,-1.841761 -0.5862,-0.396056 -1.46153,-0.609932 -2.62601,-0.641628 l -3.01809,-0.08312 0.23764,-2.233884 2.54282,0.03553 c 2.08336,0.03104 3.62806,0.483247 4.63412,1.354582 1.01395,0.863437 1.52092,2.12693 1.52092,3.790444 v 5.252015 l 2.13883,0.261437 v 2.019976 z"
         id="path27" />
      <path
         style="font-size:7.05556px;font-family:'Cascadia Mono';-inkscape-font-specification:'Cascadia Mono';fill:#0c2ddf;fill-opacity:1;stroke-width:0.912562"
         d="M 175.16101,30.535043 174.89958,28.06352 V 12.592712 h 2.51905 v 17.823512 z"
         id="path26" />
      <path
         style="font-size:7.05556px;font-family:'Cascadia Mono';-inkscape-font-specification:'Cascadia Mono';fill:#0c2ddf;fill-opacity:1;stroke-width:0.912562"
         d="m 171.32301,30.654037 c -1.64769,0 -2.89928,-0.542641 -3.75482,-1.627886 -0.8476,-1.085245 -1.27143,-2.681468 -1.27143,-4.788599 0,-2.186322 0.42383,-3.841937 1.27143,-4.966812 0.85554,-1.124841 2.10713,-1.687279 3.75482,-1.687279 0.94266,0 1.7071,0.221774 2.29328,0.665391 0.59413,0.443618 0.94269,1.061517 1.04564,1.853662 h 0.97436 l -0.73671,3.588466 c 0,-1.299156 -0.25731,-2.285378 -0.77235,-2.958703 -0.50698,-0.673325 -1.25556,-1.009988 -2.24576,-1.009988 -1.01395,0 -1.78232,0.380225 -2.30517,1.140706 -0.52284,0.760482 -0.78424,1.885323 -0.78424,3.374557 0,1.410043 0.26144,2.47549 0.78424,3.196377 0.52285,0.720853 1.29122,1.081279 2.30517,1.081279 0.9902,0 1.73878,-0.336628 2.24576,-1.009987 0.51491,-0.673359 0.77235,-1.659582 0.77235,-2.958703 l 0.85553,3.588466 h -1.09318 c -0.0789,0.792146 -0.41575,1.410044 -1.00998,1.853626 -0.58621,0.443618 -1.36252,0.665427 -2.32894,0.665427 z"
         id="path25" />
      <path
         style="font-size:7.05556px;font-family:'Cascadia Mono';-inkscape-font-specification:'Cascadia Mono';fill:#0c2ddf;fill-opacity:1;stroke-width:0.912562"
         d="m 152.32316,20.031221 v -2.21012 h 4.20633 l 0.23764,2.21012 z"
         id="path24" />
      <path
         style="font-size:7.05556px;font-family:'Cascadia Mono';-inkscape-font-specification:'Cascadia Mono';fill:#0c2ddf;fill-opacity:1;stroke-width:0.912562"
         d="M 154.6521,30.416362 V 17.821101 h 2.04377 l 0.47528,3.612231 v 8.98303 z"
         id="path23" />
      <path
         style="font-size:7.05556px;font-family:'Cascadia Mono';-inkscape-font-specification:'Cascadia Mono';fill:#0c2ddf;fill-opacity:1;stroke-width:0.912562"
         d="m 151.84789,30.416362 v -2.210119 h 8.41265 v 2.210119 z"
         id="path22" />
      <path
         style="font-size:7.05556px;font-family:'Cascadia Mono';-inkscape-font-specification:'Cascadia Mono';fill:#0c2ddf;fill-opacity:1;stroke-width:0.912562"
         d="m 157.17115,24.998034 -0.73672,-3.944926 h 0.97436 c 0.14245,-2.31311 1.29912,-3.469647 3.46965,-3.469647 1.29915,0 2.24182,0.372326 2.82798,1.116941 0.58621,0.744618 0.8793,1.948718 0.8793,3.612232 h -2.49529 c 0,-0.918932 -0.13865,-1.580392 -0.41589,-1.98438 -0.26936,-0.403988 -0.70895,-0.605999 -1.31891,-0.605999 -1.06941,0 -1.86949,0.459449 -2.40023,1.378381 -0.52285,0.910964 -0.78425,2.210085 -0.78425,3.897398 z"
         id="path21" />
      <path
         id="path19"
         style="font-size:7.05556px;font-family:'Cascadia Mono';-inkscape-font-specification:'Cascadia Mono';fill:#0c2ddf;fill-opacity:1;stroke-width:0.912562"
         d="m 143.76797,17.583423 c -1.74274,0 -3.09741,0.5703 -4.06384,1.711007 -0.96646,1.132773 -1.44952,2.741144 -1.44952,4.824511 0,2.075471 0.48306,3.683289 1.44952,4.823995 0.96643,1.140706 2.3211,1.711007 4.06384,1.711007 1.75067,0 3.10533,-0.570301 4.06383,-1.711007 0.96642,-1.140706 1.44953,-2.748524 1.44953,-4.823995 0,-2.083367 -0.48311,-3.691738 -1.44953,-4.824511 -0.9585,-1.140707 -2.31316,-1.711007 -4.06383,-1.711007 z m 0,2.257743 c 0.92683,0 1.63986,0.372112 2.13889,1.116728 0.50695,0.736718 0.76016,1.790634 0.76016,3.161047 0,1.362516 -0.25317,2.415915 -0.76016,3.160531 -0.49903,0.744616 -1.21206,1.116728 -2.13889,1.116728 -0.92683,0 -1.64379,-0.372112 -2.15077,-1.116728 -0.49887,-0.744616 -0.7488,-1.798015 -0.7488,-3.160531 0,-1.370413 0.24976,-2.424329 0.7488,-3.161047 0.50698,-0.744616 1.22394,-1.116728 2.15077,-1.116728 z" />
      <path
         style="font-size:7.05556px;font-family:'Cascadia Mono';-inkscape-font-specification:'Cascadia Mono';fill:#0c2ddf;fill-opacity:1;stroke-width:0.912562"
         d="m 131.26768,30.654002 c -5.24408,0 -7.86612,-2.899276 -7.86612,-8.697862 0,-2.748795 0.66144,-4.875724 1.98433,-6.380788 1.32289,-1.513032 3.18842,-2.269548 5.59657,-2.269548 1.16448,0 2.17844,0.18625 3.04191,0.558471 0.86343,0.364393 1.49319,0.887236 1.88929,1.568458 l -1.75861,1.746706 c -0.35647,-0.538639 -0.81195,-0.954526 -1.36645,-1.247627 -0.54657,-0.29317 -1.14071,-0.439651 -1.78237,-0.439651 -1.52886,0 -2.75668,0.550538 -3.68352,1.651649 -0.9189,1.101111 -1.37834,2.665602 -1.37834,4.693509 0,4.420241 1.90908,6.630361 5.72728,6.630361 1.14865,0 2.28142,-0.23764 3.39837,-0.712954 l 0.54656,2.0913 c -1.37834,0.53864 -2.82798,0.807976 -4.3489,0.807976 z"
         id="path18" />
    </g>
    <g
       id="g34"
       style="fill:#222222;fill-opacity:1"
       inkscape:label="Matthew"
       transform="matrix(0.9812139,0,0,0.9812139,2.1642113,2.933463)">
      <path
         style="font-size:7.05556px;font-family:'Cascadia Mono';-inkscape-font-specification:'Cascadia Mono';fill:#222222;fill-opacity:1;stroke-width:0.912562"
         d="M 96.11973,31.186476 94.693855,18.591215 h 2.376465 l 0.950565,10.694107 h 0.213841 l 1.485296,-10.694107 h 2.305168 l -1.05751,2.590344 h -0.16625 l -1.473425,10.004917 z"
         id="path17" />
      <path
         style="font-size:7.05556px;font-family:'Cascadia Mono';-inkscape-font-specification:'Cascadia Mono';fill:#222222;fill-opacity:1;stroke-width:0.912562"
         d="m 102.41736,31.186476 -1.4734,-10.004917 h -0.19005 l -1.033787,-2.590344 h 2.305177 l 1.48531,10.694107 h 0.21383 l 1.06942,-10.694107 h 2.49529 l -1.78237,12.595261 z"
         id="path16" />
      <path
         style="font-size:7.05556px;font-family:'Cascadia Mono';-inkscape-font-specification:'Cascadia Mono';fill:#222222;fill-opacity:1;stroke-width:0.912562"
         d="m 87.825851,31.424116 c -2.146744,0 -3.806309,-0.562438 -4.978697,-1.687278 -1.164468,-1.132773 -1.746702,-2.756692 -1.746702,-4.871756 0,-2.059604 0.495097,-3.659758 1.48529,-4.800465 0.990193,-1.140707 2.388347,-1.711042 4.194462,-1.711042 1.703133,0 3.018114,0.51491 3.944937,1.544694 0.934718,1.029784 1.402099,2.526986 1.402099,4.491533 0,0.578268 -0.02414,1.116942 -0.07139,1.615986 h -8.840443 v -1.924953 h 6.630341 c 0,-1.132773 -0.269337,-2.000176 -0.807996,-2.602208 -0.538668,-0.609966 -1.283295,-0.914932 -2.233881,-0.914932 -1.069411,0 -1.901172,0.364393 -2.495289,1.093145 -0.586194,0.728785 -0.879292,1.758604 -0.879292,3.089421 0,1.457571 0.403999,2.566582 1.211999,3.327063 0.815918,0.760483 1.972466,1.140707 3.46964,1.140707 0.522824,0 1.037724,-0.0276 1.544703,-0.08312 0.506981,-0.06346 1.021879,-0.146584 1.544705,-0.249711 l 0.308931,2.210086 c -0.744626,0.142446 -1.425881,0.233501 -2.043762,0.273166 -0.61788,0.03967 -1.164466,0.05932 -1.63976,0.05932 z"
         id="path15" />
      <path
         style="font-size:7.05556px;font-family:'Cascadia Mono';-inkscape-font-specification:'Cascadia Mono';fill:#222222;fill-opacity:1;stroke-width:0.912562"
         d="M 67.34071,31.186476 V 13.362998 h 2.519052 v 17.823478 z"
         id="path14" />
      <path
         style="font-size:7.05556px;font-family:'Cascadia Mono';-inkscape-font-specification:'Cascadia Mono';fill:#222222;fill-opacity:1;stroke-width:0.912562"
         d="m 75.087989,31.186476 v -8.198784 c 0,-0.800078 -0.198045,-1.41401 -0.594117,-1.841762 -0.39608,-0.435685 -0.950587,-0.653527 -1.663524,-0.653527 -1.980389,0 -2.970586,1.204066 -2.970586,3.612231 l -0.736704,-3.232006 h 0.974351 c 0.07128,-0.847607 0.380244,-1.477369 0.926824,-1.88929 0.546589,-0.419853 1.346666,-0.629763 2.400231,-0.629763 1.330822,0 2.360623,0.403987 3.089406,1.211998 0.728781,0.80801 1.093175,1.948717 1.093175,3.422119 v 8.198784 z"
         id="path13" />
      <path
         style="font-size:7.05556px;font-family:'Cascadia Mono';-inkscape-font-specification:'Cascadia Mono';fill:#222222;fill-opacity:1;stroke-width:0.912562"
         d="m 51.917441,20.801335 v -2.21012 h 11.40704 v 2.21012 z"
         id="path12" />
      <path
         style="font-size:7.05556px;font-family:'Cascadia Mono';-inkscape-font-specification:'Cascadia Mono';fill:#222222;fill-opacity:1;stroke-width:0.912562"
         d="M 55.078141,25.245341 V 14.788873 h 2.519056 v 10.456468 z"
         id="path11" />
      <path
         style="font-size:7.05556px;font-family:'Cascadia Mono';-inkscape-font-specification:'Cascadia Mono';fill:#222222;fill-opacity:1;stroke-width:0.912562"
         d="m 60.496483,31.424151 c -1.909093,0 -3.291406,-0.39609 -4.146933,-1.188235 -0.847606,-0.792145 -1.271409,-2.059603 -1.271409,-3.802342 v -2.138829 h 2.519056 v 2.019976 c 0,0.998122 0.241606,1.722974 0.724819,2.17449 0.491139,0.451517 1.295175,0.677291 2.412114,0.677291 0.396079,0 0.815923,-0.02069 1.25953,-0.05932 0.443607,-0.0476 0.950583,-0.106921 1.520937,-0.178317 l 0.285168,2.210121 c -0.554509,0.09484 -1.097138,0.166245 -1.627882,0.213841 -0.522822,0.0476 -1.081293,0.0714 -1.67541,0.0714 z"
         id="path10" />
      <path
         style="font-size:7.05556px;font-family:'Cascadia Mono';-inkscape-font-specification:'Cascadia Mono';fill:#222222;fill-opacity:1;stroke-width:0.912562"
         d="m 37.658641,20.801335 v -2.21012 h 11.407038 v 2.21012 z"
         id="path9" />
      <path
         style="font-size:7.05556px;font-family:'Cascadia Mono';-inkscape-font-specification:'Cascadia Mono';fill:#222222;fill-opacity:1;stroke-width:0.912562"
         d="M 40.819342,25.245341 V 14.788873 h 2.519052 v 10.456468 z"
         id="path8" />
      <path
         style="font-size:7.05556px;font-family:'Cascadia Mono';-inkscape-font-specification:'Cascadia Mono';fill:#222222;fill-opacity:1;stroke-width:0.912562"
         d="m 46.237684,31.424116 c -1.909093,0 -3.291406,-0.39609 -4.146934,-1.188234 -0.847606,-0.792145 -1.271408,-2.059569 -1.271408,-3.802342 v -2.138795 h 2.519052 v 2.019976 c 0,0.998122 0.241607,1.722974 0.724823,2.17449 0.491135,0.451517 1.295175,0.677291 2.412114,0.677291 0.396078,0 0.815922,-0.02069 1.259529,-0.05932 0.443608,-0.0476 0.950584,-0.106921 1.520937,-0.178317 l 0.285168,2.210087 c -0.554507,0.09484 -1.097133,0.166244 -1.627878,0.21384 -0.522822,0.0476 -1.081292,0.07139 -1.675409,0.07139 z"
         id="path7" />
      <path
         style="font-size:7.05556px;font-family:'Cascadia Mono';-inkscape-font-specification:'Cascadia Mono';fill:#222222;fill-opacity:1;stroke-width:0.912562"
         d="m 27.843834,31.424116 c -1.314977,0 -2.332897,-0.316968 -3.05376,-0.950559 -0.720862,-0.63373 -1.081292,-1.528863 -1.081292,-2.685435 0,-1.330818 0.495098,-2.35267 1.485291,-3.065624 0.998118,-0.712954 2.404195,-1.069414 4.218229,-1.069414 0.752546,0 1.421918,0.0476 2.008115,0.142445 0.594118,0.08726 1.120899,0.221775 1.580351,0.403988 l -0.522825,1.711076 c -0.530744,-0.118992 -1.049606,-0.186248 -1.556586,-0.202114 -0.506981,-0.02414 -1.025839,-0.03553 -1.556584,-0.03553 -2.186349,0 -3.279523,0.665393 -3.279523,1.996211 0,0.554505 0.186146,0.982291 0.558467,1.283325 0.380235,0.301103 0.914942,0.451516 1.604115,0.451516 0.784236,0 1.437764,-0.134514 1.960588,-0.403988 0.530743,-0.269372 0.926819,-0.613932 1.188229,-1.033786 0.261405,-0.419852 0.392121,-0.851572 0.392121,-1.295155 v -1.378345 l 0.736705,3.231972 h -0.99812 l 0.404003,-0.380224 c 0,0.728785 -0.170315,1.338751 -0.510941,1.829862 -0.332695,0.483212 -0.804039,0.847604 -1.413998,1.093179 -0.609961,0.237638 -1.330822,0.356493 -2.162585,0.356493 z"
         id="path6" />
      <path
         style="font-size:7.05556px;font-family:'Cascadia Mono';-inkscape-font-specification:'Cascadia Mono';fill:#222222;fill-opacity:1;stroke-width:0.912562"
         d="m 32.287827,31.305469 -0.166348,-3.73105 -0.332695,-1.045616 v -3.255771 c 0,-0.839673 -0.297068,-1.453604 -0.891177,-1.841761 -0.586195,-0.396089 -1.461527,-0.609966 -2.625994,-0.641663 l -3.018113,-0.08312 0.237639,-2.233849 2.54282,0.03553 c 2.083368,0.03104 3.628072,0.483247 4.634109,1.354583 1.013957,0.863436 1.520937,2.126928 1.520937,3.790442 v 5.252015 l 2.138821,0.261439 v 2.019974 z"
         id="path5" />
      <path
         style="font-size:7.05556px;font-family:'Cascadia Mono';-inkscape-font-specification:'Cascadia Mono';fill:#222222;fill-opacity:1;stroke-width:0.912562"
         d="M 18.670674,31.186476 V 14.313593 h 2.376465 v 16.872883 z"
         id="path4" />
      <path
         style="font-size:7.05556px;font-family:'Cascadia Mono';-inkscape-font-specification:'Cascadia Mono';fill:#222222;fill-opacity:1;stroke-width:0.912562"
         d="m 14.345502,24.294745 -1.829878,-6.986819 h -0.689173 v -2.994333 h 1.687288 l 1.829879,7.248224 h 0.09506 l 0.237639,2.732928 z"
         id="path3" />
      <path
         style="font-size:7.05556px;font-family:'Cascadia Mono';-inkscape-font-specification:'Cascadia Mono';fill:#222222;fill-opacity:1;stroke-width:0.912562"
         d="M 9.8302172,31.186476 V 14.313593 h 2.3764688 v 16.872883 z"
         id="path2" />
      <path
         style="font-size:7.05556px;font-family:'Cascadia Mono';-inkscape-font-specification:'Cascadia Mono';fill:#222222;fill-opacity:1;stroke-width:0.912562"
         d="m 15.03468,24.294745 0.35647,-2.732928 h 0.142584 l 1.829879,-7.248224 h 1.687292 v 2.994333 h -0.689177 l -1.829879,6.986819 z"
         id="path1" />
    </g>
  </g>
</svg>
